<svg xmlns="http://www.w3.org/2000/svg" xmlns:xlink="http://www.w3.org/1999/xlink" width="48" height="48" version="1.1" viewBox="0 0 48 48"><defs><radialGradient id="serviceDailyInsurance_svg__b" cx="100%" cy="0%" r="141.421%" fx="100%" fy="0%"><stop offset="0%" stop-color="#FFF" stop-opacity=".382"/><stop offset="100%" stop-color="#FFF" stop-opacity="0"/></radialGradient><path id="serviceDailyInsurance_svg__a" d="M14.77 0h18.46C41.389 0 48 6.612 48 14.77v18.46C48 41.389 41.388 48 33.23 48H14.77C6.611 48 0 41.388 0 33.23V14.77C0 6.611 6.612 0 14.77 0z"/></defs><g fill="none" fill-rule="evenodd" stroke="none" stroke-width="1"><g><use fill="#24D7B0" xlink:href="#serviceDailyInsurance_svg__a"/><use fill="url(#serviceDailyInsurance_svg__b)" xlink:href="#serviceDailyInsurance_svg__a"/></g><path fill="#FFF" d="M28.072 22.074c-.425.934-1.15 1.73-2.05 2.185a.623.623 0 00.6.467h1.25c.205 0 .401.034.6.063l-3.426 5.13h-2.935l-1.25-5.193h.763a.623.623 0 00.6-.467c-.9-.455-1.625-1.25-2.05-2.185-.937-.104-1.675-.935-1.675-1.935 0-.61.28-1.152.706-1.507l5.619-1.946 4.606 2.392c.194.307.317.669.317 1.061 0 1-.738 1.83-1.675 1.935zM24.123 13c2.273 0 4.124 1.816 4.333 4.121l-6.615-3.435A4.213 4.213 0 0124.123 13zm-3.308 1.604l2.429 1.262-3.448 1.193a4.585 4.585 0 011.02-2.455zm.321 16.612h6.111v3.938h-8.123c-1.722 0-3.124-1.492-3.124-3.289V29.27c0-2.232 1.55-4.076 3.6-4.465l1.536 6.412zm8.598-6.042a4.552 4.552 0 012.512 4.095v2.596c0 1.792-1.4 3.289-3.124 3.289h-.625v-5.236h-1.93l3.167-4.744z"/></g></svg>