<svg xmlns="http://www.w3.org/2000/svg" width="48" height="48" version="1.1" viewBox="0 0 48 48"><g fill="none" fill-rule="evenodd" stroke="none" stroke-width="1"><path fill="#FFF" stroke="#000" stroke-opacity=".24" stroke-width=".5" d="M14.77.25C6.75.25.25 6.75.25 14.77v18.46c0 8.02 6.5 14.52 14.52 14.52h18.46c8.02 0 14.52-6.5 14.52-14.52V14.77c0-8.02-6.5-14.52-14.52-14.52H14.77z"/><path fill="#8BC34A" d="M32.56 25.067c1.326 0 2.324.993 2.33 2.323.005 1.364.004 2.728-.001 4.093-.001.514.024 1.035-.041 1.542-.137 1.059-1.06 1.889-2.126 1.9-1.847.022-3.695.025-5.542 0-1.181-.014-2.135-1.024-2.159-2.221l-.009-.675-.003-.675v-1.35h.011c0-.86-.002-1.721.001-2.582.004-1.375.984-2.353 2.354-2.353 1.729-.001 3.457-.003 5.185-.002zm-12.015 0c1.323 0 2.33.999 2.331 2.319.002 1.383-.001 2.767-.004 4.15-.001.454.018.909-.019 1.36a2.239 2.239 0 01-2.155 2.032c-.613.013-1.227.01-1.84.007l-.92-.003c-.86.004-1.721.006-2.581.003-1.37-.005-2.352-.988-2.353-2.357-.002-1.726-.004-3.451 0-5.177.003-1.203.803-2.133 1.982-2.312a2.1 2.1 0 01.317-.02l5.242-.002zm-2.97 1.368c-1.146.209-1.802 1.08-1.685 2.238.017.164.046.328.078.499l.047.265h-.675v1.125h.972c.05.835-.375 1.387-.995 1.83l.534 1.216.203-.123c.456-.28.941-.377 1.465-.24.204.053.408.116.616.15.416.069.833.157 1.252.168.409.01.801-.128 1.175-.344l-.533-1.173c-.027-.005-.034-.01-.039-.007-.044.017-.087.033-.129.052-.463.215-.937.267-1.428.104a1.688 1.688 0 00-.347-.084c-.308-.03-.618-.047-.935-.07.325-.372.548-.796.556-1.313l-.006-.176h1.23V29.43c-.451 0-.881.005-1.31-.005-.066-.001-.176-.058-.189-.108-.077-.307-.161-.617-.185-.93a.78.78 0 01.655-.843c.419-.076.769.124.926.537.049.127.08.26.121.398l1.296-.196c.027-.683-.433-1.405-1.074-1.69-.513-.226-1.051-.257-1.596-.158zm10.917.254l-.102.003c-.384.029-.772.007-1.185.007l.981 1.94.493.974h-1.203v1.098h1.741v.469H27.47v.665c0 .108.003.215.007.322.001.04.092.105.146.11.11.009.22.008.33.006l.166-.002h1.115v1.245h1.424v-1.243h1.764v-1.108h-1.756v-.47h1.756V29.6h-1.213l1.488-2.901c-.473 0-.903.01-1.332-.005-.182-.007-.264.057-.34.216-.354.746-.722 1.484-1.084 2.225-.337-.7-.69-1.393-1.006-2.103-.088-.198-.188-.303-.355-.334l-.088-.009zm.237-13.63h3.941c1.305 0 2.313.98 2.321 2.287a383.4 383.4 0 010 5.254c-.008 1.36-1.003 2.329-2.362 2.33h-5.143c-1.377-.001-2.365-.986-2.369-2.367-.004-1.483-.005-2.965.003-4.448.003-.428-.011-.866.071-1.282.206-1.044 1.132-1.768 2.197-1.772l1.34-.002zm-12.127-.001l1.35.002h2.601c1.304 0 2.314.983 2.321 2.288.011 1.758.009 3.516-.003 5.274-.009 1.324-1.003 2.303-2.324 2.306-1.741.004-3.481.004-5.222 0-1.317-.003-2.312-.993-2.32-2.312-.007-1.344-.003-2.687-.001-4.031.001-.487-.018-.977.019-1.462a2.245 2.245 0 012.229-2.062l1.35-.003zm1.75 1.04h-.799v.429c-.106.02-.196.039-.285.058-.823.176-1.407.755-1.522 1.508-.131.858.24 1.616 1.007 2.028.203.109.42.197.638.268.133.043.171.105.169.239-.007.47-.002.94-.004 1.41 0 .049-.011.098-.026.218-.172-.185-.324-.313-.431-.473-.107-.16-.169-.351-.252-.532-.436.044-.869.088-1.299.13-.007.925.6 1.596 1.797 1.993l.217.068v.445h.79c0-.082.01-.155-.002-.224-.037-.206.048-.278.251-.321.735-.152 1.304-.536 1.604-1.252.424-1.012.024-2.033-.972-2.482a4.851 4.851 0 00-.425-.165c-.42-.144-.453-.154-.456-.532V15.66c.316.146.421.406.505.687l1.306-.16c-.184-.958-.761-1.449-1.633-1.623l-.178-.03v-.436zm10.816.794c-.676.423-1.082 1.058-1.281 1.824-.037.14-.093.2-.241.184-.122-.013-.247-.003-.374-.003l-.108.547-.055.28h.604v.526h-.437c-.031.142-.061.27-.086.399-.026.134-.049.268-.076.42.197 0 .376.008.553-.001.113-.005.157.036.191.145.078.25.162.504.275.74.687 1.447 2.738 2.126 4.15 1.379.046-.025.096-.095.097-.145.002-.159.004-.317.004-.477v-.981c-.727.588-1.478.752-2.121.469-.428-.189-.696-.509-.835-.956l-.047-.173h2.117l.17-.828h-2.403v-.52h2.516l.084-.41.084-.415h-2.58c.135-.491.384-.87.826-1.067.683-.304 1.336-.22 1.934.252.089-.417.169-.826.266-1.231.031-.131.004-.192-.121-.235-1.079-.383-2.124-.337-3.106.277zm-10.806 3.795c.461.099.724.403.71.807a.826.826 0 01-.71.785zm-.748-3.028V17c-.248-.032-.48-.304-.505-.592a.72.72 0 01.505-.75z"/></g></svg>