<svg xmlns="http://www.w3.org/2000/svg" width="48" height="48" fill="none" viewBox="0 0 48 48"><rect width="48" height="48" fill="#99CF37" rx="15"/><rect width="48" height="48" fill="url(#serviceBonds_svg__paint0_radial)" fill-opacity=".38" rx="15"/><path fill="#fff" fill-rule="evenodd" d="M26.6 11.025a.41.41 0 00-.287-.117H15.77c-1.487 0-2.678 1.165-2.678 2.618v20.946c0 1.44 1.191 2.618 2.678 2.618h16.066c1.478 0 2.677-1.172 2.677-2.618V18.935a.41.41 0 00-.123-.293l-7.79-7.617zm-.417 2.045a.41.41 0 01.695-.292l5.95 5.819a.41.41 0 01-.285.701h-5.951a.41.41 0 01-.41-.409V13.07zM23.47 26.835c.207 0 .374-.183.374-.409v-.574c0-.226-.167-.41-.374-.41h-.17a.34.34 0 01-.122-.023c-.19-.074-.288-.301-.22-.508.034-.107.06-.2.076-.278.058-.284.088-.554.088-.811 0-1.013-.258-1.783-.774-2.308-.515-.525-1.25-.788-2.202-.788-.587 0-1.081.091-1.483.275-.403.183-.727.43-.973.741a2.944 2.944 0 00-.531 1.077 5.334 5.334 0 00-.13.869c0 .226.167.409.374.409h.774c.193 0 .355-.161.372-.372.017-.19.036-.336.06-.438.055-.24.146-.442.274-.607.127-.166.294-.293.499-.382.204-.09.46-.134.764-.134.515 0 .885.141 1.11.422.224.283.336.683.336 1.204 0 .258-.025.53-.075.818a3.466 3.466 0 01-.174.581.375.375 0 01-.346.254h-4.259c-.206 0-.373.183-.373.409v.574c0 .226.167.41.373.41h6.732zm0 2.219c.207 0 .374-.183.374-.41v-.527c0-.225-.167-.408-.374-.408h-6.732c-.206 0-.373.183-.373.408v.528c0 .226.167.409.373.409h.146c.046 0 .092.011.134.033.154.08.219.284.145.452-.057.13-.098.242-.125.338a3.48 3.48 0 00-.125.93c0 .49.074.924.22 1.298.147.374.359.69.636.943s.611.446 1.002.575c.39.13.832.194 1.325.194.449 0 .872-.062 1.272-.189a2.83 2.83 0 001.043-.589c.296-.266.53-.604.702-1.014.087-.209.158-.54.212-.995a.464.464 0 00.003-.053c0-.226-.168-.409-.374-.409h-.772c-.19 0-.35.156-.371.362a2.447 2.447 0 01-.094.51c-.083.236-.2.426-.354.573a1.323 1.323 0 01-.552.317 2.437 2.437 0 01-.715.098c-.57 0-.989-.141-1.255-.424-.266-.282-.399-.677-.399-1.183 0-.171.006-.331.017-.481a2.446 2.446 0 01.22-.857 2.53 2.53 0 01.139-.248.366.366 0 01.31-.181h4.342z" clip-rule="evenodd"/><defs><radialGradient id="serviceBonds_svg__paint0_radial" cx="0" cy="0" r="1" gradientTransform="rotate(135 24 9.941) scale(66.4016)" gradientUnits="userSpaceOnUse"><stop stop-color="#fff"/><stop offset="1" stop-color="#fff" stop-opacity="0"/></radialGradient></defs></svg>